<svg width="160" height="160" viewBox="0 0 160 160" fill="none" xmlns="http://www.w3.org/2000/svg">
<path d="M17.1104 2.78542L2.78542 17.1104C-0.928472 20.8243 -0.928472 27.191 2.78542 31.4354L51.5965 80.2465L2.78542 129.058C-0.928472 132.772 -0.928472 139.138 2.78542 143.383L16.5799 157.177C20.2938 160.891 26.6604 160.891 30.9049 157.177L79.716 108.366L128.527 157.177C132.241 160.891 138.608 160.891 142.852 157.177L156.647 143.383C160.36 139.669 160.36 133.302 156.647 129.058L107.835 79.716L156.647 30.9049C160.36 27.191 160.36 20.8243 156.647 16.5799L142.852 2.78542C139.138 -0.928472 132.772 -0.928472 128.527 2.78542L79.716 51.5965L30.9049 2.78542C27.191 -0.928472 20.8243 -0.928472 17.1104 2.78542Z" fill="#F56E7C"/>
</svg>
